<mxfile host="65bd71144e">
    <diagram id="VevtqfHYLRV94XmZ_G4F" name="Página-1">
        <mxGraphModel dx="486" dy="313" grid="0" gridSize="10" guides="1" tooltips="1" connect="1" arrows="1" fold="1" page="1" pageScale="1" pageWidth="1169" pageHeight="1654" math="0" shadow="0">
            <root>
                <mxCell id="0"/>
                <mxCell id="1" parent="0"/>
                <mxCell id="2" value="Usuario" style="shape=umlActor;verticalLabelPosition=bottom;verticalAlign=top;html=1;" parent="1" vertex="1">
                    <mxGeometry x="230" y="932" width="30" height="60" as="geometry"/>
                </mxCell>
                <mxCell id="5" value="UC1: APP" style="shape=umlFrame;whiteSpace=wrap;html=1;width=120;height=30;boundedLbl=1;verticalAlign=middle;align=left;spacingLeft=5;fontStyle=1" parent="1" vertex="1">
                    <mxGeometry x="340" y="775" width="630" height="355" as="geometry"/>
                </mxCell>
                <mxCell id="6" value="ARDUINO" style="shape=umlActor;verticalLabelPosition=bottom;verticalAlign=top;html=1;" parent="1" vertex="1">
                    <mxGeometry x="1031" y="979" width="30" height="60" as="geometry"/>
                </mxCell>
                <mxCell id="28" value="&lt;span style=&quot;&quot;&gt;Registrar vehículo&lt;br&gt;&amp;lt;&amp;lt;Java&amp;gt;&amp;gt;&lt;br&gt;&lt;/span&gt;" style="ellipse;whiteSpace=wrap;html=1;" parent="1" vertex="1">
                    <mxGeometry x="410" y="1020" width="120" height="70" as="geometry"/>
                </mxCell>
                <mxCell id="29" style="html=1;exitX=0.5;exitY=0.5;exitDx=0;exitDy=0;exitPerimeter=0;entryX=0;entryY=0.5;entryDx=0;entryDy=0;endArrow=none;endFill=0;" parent="1" source="2" target="28" edge="1">
                    <mxGeometry relative="1" as="geometry">
                        <mxPoint x="255" y="930" as="sourcePoint"/>
                        <mxPoint x="480" y="765" as="targetPoint"/>
                    </mxGeometry>
                </mxCell>
                <mxCell id="30" value="Ver el registro de las entradas&lt;br&gt;&amp;lt;&amp;lt;Base de datos&amp;gt;&amp;gt;" style="ellipse;whiteSpace=wrap;html=1;" parent="1" vertex="1">
                    <mxGeometry x="630" y="1050" width="150" height="70" as="geometry"/>
                </mxCell>
                <mxCell id="31" value="&lt;span style=&quot;&quot;&gt;Apagar y encender el sensor&lt;br&gt;&amp;lt;&amp;lt;Java&amp;gt;&amp;gt;&lt;br&gt;&lt;/span&gt;" style="ellipse;whiteSpace=wrap;html=1;" parent="1" vertex="1">
                    <mxGeometry x="622.5" y="945" width="165" height="75" as="geometry"/>
                </mxCell>
                <mxCell id="34" value="&lt;span style=&quot;&quot;&gt;Validar Registro&amp;nbsp;&lt;br&gt;&amp;lt;&amp;lt;Java&amp;gt;&amp;gt;&lt;br&gt;&lt;/span&gt;" style="ellipse;whiteSpace=wrap;html=1;" parent="1" vertex="1">
                    <mxGeometry x="410" y="865" width="120" height="70" as="geometry"/>
                </mxCell>
                <mxCell id="41" style="html=1;exitX=1;exitY=0.5;exitDx=0;exitDy=0;entryX=0.5;entryY=0.5;entryDx=0;entryDy=0;endArrow=none;endFill=0;entryPerimeter=0;" parent="1" source="31" target="6" edge="1">
                    <mxGeometry relative="1" as="geometry">
                        <mxPoint x="715" y="570" as="sourcePoint"/>
                        <mxPoint x="1014.9999999999995" y="480" as="targetPoint"/>
                    </mxGeometry>
                </mxCell>
                <mxCell id="52" style="html=1;endArrow=none;endFill=0;entryX=0.015;entryY=0.402;entryDx=0;entryDy=0;entryPerimeter=0;" edge="1" parent="1" source="28" target="31">
                    <mxGeometry relative="1" as="geometry">
                        <mxPoint x="569" y="945" as="sourcePoint"/>
                        <mxPoint x="622" y="977" as="targetPoint"/>
                    </mxGeometry>
                </mxCell>
                <mxCell id="53" style="html=1;endArrow=none;endFill=0;" edge="1" parent="1" source="28" target="30">
                    <mxGeometry relative="1" as="geometry">
                        <mxPoint x="526.2733815001236" y="932.2797762778373" as="sourcePoint"/>
                        <mxPoint x="634.9750000000001" y="985.1500000000001" as="targetPoint"/>
                    </mxGeometry>
                </mxCell>
                <mxCell id="56" style="html=1;endArrow=none;endFill=0;" edge="1" parent="1" source="28" target="34">
                    <mxGeometry relative="1" as="geometry">
                        <mxPoint x="525.0806442709759" y="1041.903126700673" as="sourcePoint"/>
                        <mxPoint x="634.9750000000001" y="985.1500000000001" as="targetPoint"/>
                    </mxGeometry>
                </mxCell>
                <mxCell id="57" value="Base de datos" style="shape=umlActor;verticalLabelPosition=bottom;verticalAlign=top;html=1;" vertex="1" parent="1">
                    <mxGeometry x="1017" y="1090" width="30" height="60" as="geometry"/>
                </mxCell>
                <mxCell id="58" style="html=1;endArrow=none;endFill=0;" edge="1" parent="1" source="30" target="57">
                    <mxGeometry relative="1" as="geometry">
                        <mxPoint x="797.5" y="992.5" as="sourcePoint"/>
                        <mxPoint x="1056" y="1019" as="targetPoint"/>
                    </mxGeometry>
                </mxCell>
            </root>
        </mxGraphModel>
    </diagram>
</mxfile>